<?xml version="1.0" encoding="UTF-8" standalone="no"?>
<!-- Created with Inkscape (http://www.inkscape.org/) -->

<svg
   xmlns:dc="http://purl.org/dc/elements/1.1/"
   xmlns:cc="http://creativecommons.org/ns#"
   xmlns:rdf="http://www.w3.org/1999/02/22-rdf-syntax-ns#"
   xmlns:svg="http://www.w3.org/2000/svg"
   xmlns="http://www.w3.org/2000/svg"
   version="1.1"
   width="32"
   height="32"
   id="svg2">
  <defs
     id="defs4" />
  <metadata
     id="metadata7">
    <rdf:RDF>
      <cc:Work
         rdf:about="">
        <dc:format>image/svg+xml</dc:format>
        <dc:type
           rdf:resource="http://purl.org/dc/dcmitype/StillImage" />
        <dc:title></dc:title>
      </cc:Work>
    </rdf:RDF>
  </metadata>
  <g
     transform="translate(0,-3125.0866)"
     id="layer1">
    <g
       id="text2985"
       style="font-size:40px;font-style:normal;font-weight:normal;line-height:125%;letter-spacing:0px;word-spacing:0px;fill:#000000;fill-opacity:1;stroke:none;font-family:Sans">
      <path
         d="m 16.019531,3129.0652 c 0.338531,1.4063 0.859364,2.6628 1.5625,3.7695 0.703112,1.1068 1.953111,2.4805 3.75,4.1211 1.809878,1.6276 2.955711,2.8776 3.4375,3.75 0.481751,0.8724 0.722636,1.7578 0.722656,2.6563 -2e-5,1.25 -0.416686,2.2916 -1.25,3.125 -0.833351,0.8333 -1.848975,1.25 -3.046875,1.25 -1.015639,0 -1.940118,-0.3125 -2.773437,-0.9375 -0.820325,-0.6381 -1.549491,-1.5625 -2.1875,-2.7735 0.01301,1.9141 0.260406,3.4375 0.742187,4.5703 0.49478,1.1198 1.276029,2.0052 2.34375,2.6563 1.080715,0.638 2.513005,1.0156 4.296875,1.1328 l 0.136719,0.7227 -15.488281,0 0.15625,-0.7227 c 2.395828,0 4.251295,-0.6966 5.566406,-2.0898 1.328115,-1.4063 1.966136,-3.4961 1.914063,-6.2696 -0.585948,1.237 -1.315114,2.168 -2.1875,2.793 -0.859383,0.612 -1.835944,0.918 -2.929688,0.918 -1.171879,0 -2.1809926,-0.4232 -3.0273435,-1.2696 -0.8333349,-0.8463 -1.2500011,-1.8619 -1.25,-3.0468 -1.1e-6,-0.9506 0.2148424,-1.8099 0.6445312,-2.5782 0.5859352,-1.0677 1.5364551,-2.1419 2.8515623,-3.2226 1.315098,-1.0807 2.28515,-1.9727 2.910157,-2.6758 0.950512,-1.0807 1.640615,-2.0443 2.070312,-2.8906 0.442698,-0.8464 0.78775,-1.8425 1.035156,-2.9883"
         id="path3322"
         style="fill:#000000" />
    </g>
  </g>
</svg>
