<?xml version="1.0" encoding="UTF-8" standalone="no"?>
<!-- Created with Inkscape (http://www.inkscape.org/) -->

<svg
   xmlns:dc="http://purl.org/dc/elements/1.1/"
   xmlns:cc="http://creativecommons.org/ns#"
   xmlns:rdf="http://www.w3.org/1999/02/22-rdf-syntax-ns#"
   xmlns:svg="http://www.w3.org/2000/svg"
   xmlns="http://www.w3.org/2000/svg"
   version="1.1"
   width="32"
   height="32"
   id="svg2">
  <defs
     id="defs4" />
  <metadata
     id="metadata7">
    <rdf:RDF>
      <cc:Work
         rdf:about="">
        <dc:format>image/svg+xml</dc:format>
        <dc:type
           rdf:resource="http://purl.org/dc/dcmitype/StillImage" />
        <dc:title></dc:title>
      </cc:Work>
    </rdf:RDF>
  </metadata>
  <g
     transform="translate(0,-3125.0866)"
     id="layer1">
    <g
       transform="translate(7.0351565,-2.00005)"
       id="text2985"
       style="font-size:40px;font-style:normal;font-weight:normal;line-height:125%;letter-spacing:0px;word-spacing:0px;fill:#d40000;fill-opacity:1;stroke:none;font-family:Sans">
      <path
         d="m 8.9257813,3130.8308 c 1.1588427,1.9662 2.5846227,4.0756 4.2773437,6.3281 1.953109,2.6042 3.528628,4.5769 4.726562,5.918 -0.963559,1.0156 -2.539079,2.9818 -4.726562,5.8984 -1.770846,2.3698 -3.190115,4.4922 -4.2578125,6.3672 C 8.5937402,3154.6654 8.1119698,3153.8777 7.5,3152.9792 6.4453048,3151.4168 5.1367124,3149.6003 3.5742188,3147.53 3.2356726,3147.0743 2.0442675,3145.5899 0,3143.0769 c 1.3151016,-1.4974 3.0078082,-3.6328 5.078125,-6.4062 1.5364505,-2.0573 2.8190013,-4.0039 3.8476563,-5.8399"
         id="path3237"
         style="fill:#d40000" />
    </g>
  </g>
</svg>
