<?xml version="1.0" encoding="UTF-8" standalone="no"?>
<!-- Created with Inkscape (http://www.inkscape.org/) -->

<svg
   xmlns:dc="http://purl.org/dc/elements/1.1/"
   xmlns:cc="http://creativecommons.org/ns#"
   xmlns:rdf="http://www.w3.org/1999/02/22-rdf-syntax-ns#"
   xmlns:svg="http://www.w3.org/2000/svg"
   xmlns="http://www.w3.org/2000/svg"
   version="1.1"
   width="32"
   height="32"
   id="svg2">
  <defs
     id="defs4" />
  <metadata
     id="metadata7">
    <rdf:RDF>
      <cc:Work
         rdf:about="">
        <dc:format>image/svg+xml</dc:format>
        <dc:type
           rdf:resource="http://purl.org/dc/dcmitype/StillImage" />
        <dc:title></dc:title>
      </cc:Work>
    </rdf:RDF>
  </metadata>
  <g
     transform="translate(0,-3125.0866)"
     id="layer1">
    <g
       id="text2985"
       style="font-size:40px;font-style:normal;font-weight:normal;line-height:125%;letter-spacing:0px;word-spacing:0px;fill:#000000;fill-opacity:1;stroke:none;font-family:Sans">
      <path
         d="m 24.330078,3153.1082 -16.5624999,0 0.15625,-0.6641 c 2.1484299,-0.4557 3.5742099,-0.905 4.2773439,-1.3477 1.054677,-0.664 1.914051,-1.6471 2.578125,-2.9492 0.677071,-1.3021 1.015612,-2.6758 1.015625,-4.1211 -1.3e-5,-0.2083 -0.0065,-0.5078 -0.01953,-0.8984 -0.794283,1.6146 -1.764334,2.793 -2.910157,3.5351 -1.132821,0.7422 -2.291674,1.1133 -3.4765621,1.1133 -1.5104217,0 -2.7929725,-0.5273 -3.8476563,-1.582 -1.0546891,-1.0547 -1.5820323,-2.3503 -1.5820312,-3.8867 -1.1e-6,-1.5104 0.4817693,-2.78 1.4453125,-3.8086 0.9635382,-1.0417 2.0572871,-1.5625 3.28125,-1.5625 0.7812434,0 1.8424401,0.332 3.1835941,0.9961 -0.546884,-0.9115 -0.904956,-1.5951 -1.074219,-2.0508 -0.156258,-0.4687 -0.234383,-0.97 -0.234375,-1.5039 -8e-6,-1.4844 0.514315,-2.7409 1.542969,-3.7695 1.028635,-1.0287 2.311186,-1.543 3.847656,-1.543 1.536444,0 2.825505,0.5143 3.867187,1.543 1.05467,1.0286 1.582013,2.2526 1.582032,3.6718 -1.9e-5,1.1589 -0.449237,2.3763 -1.347657,3.6524 1.093732,-0.5208 1.751284,-0.8138 1.972657,-0.8789 0.351543,-0.1042 0.748678,-0.1563 1.191406,-0.1563 1.302062,0 2.428363,0.5144 3.378906,1.543 0.963517,1.0156 1.445287,2.2786 1.445313,3.789 -2.6e-5,1.5626 -0.527369,2.8777 -1.582032,3.9454 -1.041689,1.0547 -2.298198,1.582 -3.769531,1.582 -0.820331,0 -1.666685,-0.1953 -2.539062,-0.5859 -0.859392,-0.4037 -1.608089,-0.9375 -2.246094,-1.6016 -0.455744,-0.4818 -1.02215,-1.2956 -1.699219,-2.4414 0.05207,2.0703 0.36457,3.7109 0.9375,4.9219 0.585923,1.1979 1.477849,2.194 2.675781,2.9882 0.807274,0.5339 2.259096,1.0026 4.355469,1.4063 l 0.15625,0.6641"
         id="path3281"
         style="fill:#000000" />
    </g>
  </g>
</svg>
