<?xml version="1.0" encoding="UTF-8" standalone="no"?>
<!-- Created with Inkscape (http://www.inkscape.org/) -->

<svg
   xmlns:dc="http://purl.org/dc/elements/1.1/"
   xmlns:cc="http://creativecommons.org/ns#"
   xmlns:rdf="http://www.w3.org/1999/02/22-rdf-syntax-ns#"
   xmlns:svg="http://www.w3.org/2000/svg"
   xmlns="http://www.w3.org/2000/svg"
   xmlns:sodipodi="http://sodipodi.sourceforge.net/DTD/sodipodi-0.dtd"
   xmlns:inkscape="http://www.inkscape.org/namespaces/inkscape"
   width="32"
   height="32"
   id="svg2"
   version="1.1"
   inkscape:version="0.48.2 r9819"
   sodipodi:docname="cardsuit_diamonds.svg"
   inkscape:export-filename="/Users/jeremyosborne/Desktop/red_king.png"
   inkscape:export-xdpi="90"
   inkscape:export-ydpi="90">
  <defs
     id="defs4" />
  <sodipodi:namedview
     id="base"
     pagecolor="#ffffff"
     bordercolor="#666666"
     borderopacity="1.0"
     inkscape:pageopacity="0.0"
     inkscape:pageshadow="2"
     inkscape:zoom="7.9195959"
     inkscape:cx="19.492382"
     inkscape:cy="32.019294"
     inkscape:document-units="px"
     inkscape:current-layer="layer1"
     showgrid="false"
     inkscape:window-width="1440"
     inkscape:window-height="852"
     inkscape:window-x="0"
     inkscape:window-y="0"
     inkscape:window-maximized="0" />
  <metadata
     id="metadata7">
    <rdf:RDF>
      <cc:Work
         rdf:about="">
        <dc:format>image/svg+xml</dc:format>
        <dc:type
           rdf:resource="http://purl.org/dc/dcmitype/StillImage" />
        <dc:title></dc:title>
      </cc:Work>
    </rdf:RDF>
  </metadata>
  <g
     inkscape:label="Layer 1"
     inkscape:groupmode="layer"
     id="layer1"
     transform="translate(0,-3125.0866)">
    <g
       style="font-size:40px;font-style:normal;font-weight:normal;line-height:125%;letter-spacing:0px;word-spacing:0px;fill:#d40000;fill-opacity:1;stroke:none;font-family:Sans"
       id="text2985"
       transform="translate(5.3750001,-2.00005)">
      <path
         d="m 10.664063,3155.3425 c -0.403658,-1.5364 -0.9830843,-2.9752 -1.7382817,-4.3164 -0.742197,-1.3541 -2.187508,-3.4505 -4.3359376,-6.289 -1.575525,-2.0834 -2.5455762,-3.405 -2.9101562,-3.9649 -0.5989607,-0.9114 -1.03515814,-1.7448 -1.30859375,-2.5 -0.26041803,-0.7682 -0.39062623,-1.5429 -0.390625,-2.3242 -1.23e-6,-1.4453 0.48176912,-2.6562 1.44531245,-3.6328 0.9635381,-0.9766 2.1549431,-1.4648 3.5742188,-1.4649 1.432284,10e-5 2.6757723,0.5079 3.7304688,1.5235 0.79426,0.7552 1.4387902,1.8815 1.9335942,3.3789 0.429675,-1.4713 1.035143,-2.5911 1.816406,-3.3594 1.080714,-1.0416 2.330713,-1.5625 3.75,-1.5625 1.406231,0 2.597636,0.4883 3.574218,1.4649 0.976541,0.9635 1.464822,2.1159 1.464844,3.457 -2.2e-5,1.1719 -0.28648,2.3958 -0.859375,3.6719 -0.572938,1.263 -1.679707,2.9232 -3.320312,4.9804 -2.135433,2.6953 -3.691421,4.9089 -4.667969,6.6407 -0.768242,1.3671 -1.354179,2.7994 -1.757812,4.2968"
         style="fill:#d40000"
         id="path3259"
         inkscape:connector-curvature="0" />
    </g>
  </g>
</svg>
